<?xml version="1.0" standalone="no"?><!DOCTYPE svg PUBLIC "-//W3C//DTD SVG 1.1//EN" "http://www.w3.org/Graphics/SVG/1.1/DTD/svg11.dtd"><svg t="1726147706796" class="icon" viewBox="0 0 1024 1024" version="1.1" xmlns="http://www.w3.org/2000/svg" p-id="2207" xmlns:xlink="http://www.w3.org/1999/xlink" width="200" height="200"><path d="M53.333333 512C53.333333 259.669333 259.669333 53.333333 512 53.333333S970.666667 259.669333 970.666667 512 764.330667 970.666667 512 970.666667 53.333333 764.330667 53.333333 512zM512 117.333333c-217.002667 0-394.666667 177.664-394.666667 394.666667s177.664 394.666667 394.666667 394.666667 394.666667-177.664 394.666667-394.666667S729.002667 117.333333 512 117.333333z" fill="#111827" p-id="2208"></path><path d="M309.333333 512a32 32 0 0 1 32-32h341.333334a32 32 0 0 1 0 64H341.333333a32 32 0 0 1-32-32z" fill="#111827" p-id="2209"></path><path d="M512 309.333333a32 32 0 0 1 32 32v341.333334a32 32 0 0 1-64 0V341.333333a32 32 0 0 1 32-32z" fill="#111827" p-id="2210"></path></svg>